<svg xmlns="http://www.w3.org/2000/svg" width="180.245" height="210.277" viewBox="0 0 180.245 210.277">
  <g id="_01" data-name="01" transform="translate(58.616 40.916)">
    <path id="Path_37070" data-name="Path 37070" d="M152.49,64.194a78.088,78.088,0,0,1-7.149,33.123,87.182,87.182,0,0,1-19.54,27.166A95.66,95.66,0,0,1,96.967,143.07a89.48,89.48,0,0,1-35.029,6.911A83.178,83.178,0,0,1,28.1,143.07,95.122,95.122,0,0,1,.219,124.483,85.777,85.777,0,0,1-18.844,97.318a80.367,80.367,0,0,1-6.911-33.123,83.178,83.178,0,0,1,6.911-33.838A87.808,87.808,0,0,1,.219,2.714,89.275,89.275,0,0,1,28.1-15.873a85.735,85.735,0,0,1,33.838-6.672,92.262,92.262,0,0,1,35.029,6.672,89.554,89.554,0,0,1,48.374,46.229A80.8,80.8,0,0,1,152.49,64.194Z" transform="translate(-31.861 -17.371)" fill="#fff" stroke="#cedeff" stroke-width="2"/>
    <g id="_ICO_" data-name="[ICO]">
      <path id="Union_39" data-name="Union 39" d="M11.55,64.948a2.915,2.915,0,0,1-2.906-2.883V56.328H2.9A2.905,2.905,0,0,1,0,53.445V46.228H2.922v7.178l40.316,0V3.009l-7.175-.091L36.1,0,43.27.087A2.907,2.907,0,0,1,46.16,3v5.71h5.709A2.918,2.918,0,0,1,54.78,11.59V62a2.875,2.875,0,0,1-.8,2.045,2.912,2.912,0,0,1-2.036.905Zm.012-2.9,40.308-.024L51.858,11.6l-5.7.02V53.405a2.911,2.911,0,0,1-2.883,2.923H11.562ZM10.077,47.711V44.79H34.621V10.164h2.923V47.711Z" transform="translate(8.621 8.53)" fill="#558af1" stroke="rgba(0,0,0,0)" stroke-miterlimit="10" stroke-width="1"/>
      <path id="Union_38" data-name="Union 38" d="M2.724,56.241A2.723,2.723,0,0,1,0,53.522V2.72A2.723,2.723,0,0,1,2.724,0H43.442a2.72,2.72,0,0,1,2.72,2.719v50.8a2.72,2.72,0,0,1-2.72,2.719Zm.2-2.92H43.245V2.917H2.92Zm9.036-30.659a1.46,1.46,0,0,1,0-2.921H28.224a1.46,1.46,0,0,1,0,2.921Zm0-7.144a1.46,1.46,0,0,1,0-2.92H28.224a1.46,1.46,0,0,1,0,2.92Z" fill="#004cff" stroke="rgba(0,0,0,0)" stroke-miterlimit="10" stroke-width="1"/>
    </g>
    <text id="Project_Scope" data-name="Project Scope" transform="translate(31.701 164.361)" fill="#004cff" font-size="20" font-family="WorkSans-Bold, Work Sans" font-weight="700"><tspan x="-68.68" y="0">Project Scope</tspan></text>
    <text id="_01-2" data-name="01" transform="translate(27.999 101.78)" fill="#474747" font-size="20" font-family="WorkSans-Bold, Work Sans" font-weight="700"><tspan x="-10.75" y="0">01</tspan></text>
  </g>
</svg>
