<svg xmlns="http://www.w3.org/2000/svg" width="181.25" height="210.277" viewBox="0 0 181.25 210.277">
  <g id="_02" data-name="02" transform="translate(48.906 40.915)">
    <path id="Path_37071" data-name="Path 37071" d="M153.495,64.683a78.528,78.528,0,0,1-7.189,33.31,87.673,87.673,0,0,1-19.65,27.319,96.2,96.2,0,0,1-29,18.692,89.984,89.984,0,0,1-35.227,6.95A83.646,83.646,0,0,1,28.4,144,95.658,95.658,0,0,1,.366,125.312,86.26,86.26,0,0,1-18.805,97.993a80.82,80.82,0,0,1-6.949-33.31,83.647,83.647,0,0,1,6.949-34.029A88.3,88.3,0,0,1,.366,2.857,89.778,89.778,0,0,1,28.4-15.835a86.219,86.219,0,0,1,34.029-6.71,92.782,92.782,0,0,1,35.227,6.71,90.059,90.059,0,0,1,48.647,46.49A81.259,81.259,0,0,1,153.495,64.683Z" transform="translate(-22.151 -17.37)" fill="#fff" stroke="#cedeff" stroke-width="2"/>
    <g id="_ICO_" data-name="[ICO]">
      <path id="Union_41" data-name="Union 41" d="M73.528,72.589a1.514,1.514,0,0,1-1.514-1.513V68.393H30.09v2.684a1.516,1.516,0,0,1-1.513,1.513H19.838a1.512,1.512,0,0,1-1.512-1.513V62.688a1.516,1.516,0,0,1,1.512-1.514h2.068V58.857H4.717A4.72,4.72,0,0,1,0,54.142V4.729A4.727,4.727,0,0,1,4.717,0H61.8a4.727,4.727,0,0,1,4.716,4.729V26.205H72V23.521a1.514,1.514,0,0,1,1.513-1.508h8.739a1.512,1.512,0,0,1,1.513,1.508v8.393a1.512,1.512,0,0,1-1.513,1.509H79.4V61.175h2.849a1.517,1.517,0,0,1,1.513,1.514v8.388a1.513,1.513,0,0,1-1.513,1.513Zm1.5-3.021h5.716V64.2H75.025Zm-53.678,0h5.716V64.2H21.348Zm3.581-8.393h3.648a1.519,1.519,0,0,1,1.513,1.514v2.683H72.015V62.688a1.517,1.517,0,0,1,1.514-1.514h2.848V33.422H73.528a1.513,1.513,0,0,1-1.514-1.509V29.227H30.09v2.687a1.515,1.515,0,0,1-1.513,1.509H24.929ZM3.022,54.142a1.7,1.7,0,0,0,1.694,1.694H21.906V33.41H19.838A1.512,1.512,0,0,1,18.326,31.9V23.51A1.516,1.516,0,0,1,19.838,22h8.739A1.519,1.519,0,0,1,30.09,23.51v2.683H63.5V16.308H3.022ZM21.348,30.4h5.716V25.034H21.348Zm53.678-.015h5.716V25.021H75.025Zm-72-25.669v8.57H63.484V4.716A1.7,1.7,0,0,0,61.791,3.01H4.717A1.7,1.7,0,0,0,3.022,4.716ZM54.25,10.161a1.513,1.513,0,1,1,0-3.025h1.835a1.513,1.513,0,1,1,0,3.025Zm-7.841,0a1.513,1.513,0,1,1,0-3.025h1.836a1.513,1.513,0,0,1,0,3.025Zm-7.828,0a1.513,1.513,0,1,1,0-3.025h1.836a1.513,1.513,0,0,1,0,3.025Zm-29.451,0a1.513,1.513,0,0,1,0-3.025H26.871a1.513,1.513,0,1,1,0,3.025Z" fill="#558af1" stroke="rgba(0,0,0,0)" stroke-miterlimit="10" stroke-width="1"/>
      <path id="Union_40" data-name="Union 40" d="M31.952,29.8a1.513,1.513,0,0,1,0-3.026h2.864V24.02a1.517,1.517,0,0,1,1.51-1.514,1.5,1.5,0,0,1,1.513,1.514V28.29A1.514,1.514,0,0,1,36.326,29.8Zm-30.438,0A1.517,1.517,0,0,1,0,28.29V24.02a1.513,1.513,0,1,1,3.026,0v2.758H5.745a1.513,1.513,0,1,1,0,3.026Zm14.6-3.129a1.546,1.546,0,0,1-1.474-.922L7.285,8.153a1.5,1.5,0,0,1,.279-1.61,1.518,1.518,0,0,1,1.587-.41l17.478,5.891a1.518,1.518,0,0,1,.094,2.837l-6.813,2.81-2.423,7.937a1.529,1.529,0,0,1-1.364,1.068Zm-.306-5.964L17.218,16.1a1.5,1.5,0,0,1,.857-.946h.008L21.831,13.6,11.36,10.067Zm19-14.978V3.021H31.952a1.511,1.511,0,1,1,0-3.021h4.374a1.5,1.5,0,0,1,1.513,1.513V5.733a1.511,1.511,0,1,1-3.022,0ZM0,5.733V1.513A1.517,1.517,0,0,1,1.514,0H5.745a1.511,1.511,0,1,1,0,3.021H3.026V5.733A1.513,1.513,0,0,1,0,5.733Z" transform="translate(31.74 32.77)" fill="#004cff" stroke="rgba(0,0,0,0)" stroke-miterlimit="10" stroke-width="1"/>
    </g>
    <text id="_02-2" data-name="02" transform="translate(39.697 100.781)" fill="#474747" font-size="20" font-family="WorkSans-Bold, Work Sans" font-weight="700"><tspan x="-12.4" y="0">02</tspan></text>
    <text id="Visual_Design" data-name="Visual Design" transform="translate(41.882 164.362)" fill="#004cff" font-size="20" font-family="WorkSans-Bold, Work Sans" font-weight="700"><tspan x="-66.05" y="0">Visual Design</tspan></text>
  </g>
</svg>
