<svg xmlns="http://www.w3.org/2000/svg" width="181.25" height="210.277" viewBox="0 0 181.25 210.277">
  <g id="_02" data-name="02" transform="translate(48.907 40.915)">
    <path id="Path_37071" data-name="Path 37071" d="M153.495,64.683a78.528,78.528,0,0,1-7.189,33.31,87.673,87.673,0,0,1-19.65,27.319,96.2,96.2,0,0,1-29,18.692,89.984,89.984,0,0,1-35.227,6.95A83.646,83.646,0,0,1,28.4,144,95.658,95.658,0,0,1,.366,125.312,86.26,86.26,0,0,1-18.805,97.993a80.82,80.82,0,0,1-6.949-33.31,83.647,83.647,0,0,1,6.949-34.029A88.3,88.3,0,0,1,.366,2.857,89.778,89.778,0,0,1,28.4-15.835a86.219,86.219,0,0,1,34.029-6.71,92.782,92.782,0,0,1,35.227,6.71,90.059,90.059,0,0,1,48.647,46.49A81.259,81.259,0,0,1,153.495,64.683Z" transform="translate(-22.152 -17.37)" fill="#fff" stroke="#cedeff" stroke-width="2"/>
    <g id="_ICO_" data-name="[ICO]" transform="translate(-1331.808 -805.227)">
      <g id="Group_598" data-name="Group 598" transform="translate(1338.35 851.925)">
        <path id="Path_37265" data-name="Path 37265" d="M1368.129,866.909l-1.013,4.937-3.281-14.125-3.1-.156-15.125,5.488a11.054,11.054,0,0,0-7.26,10.358v14.052h66.311V873.39a11.057,11.057,0,0,0-7.249-10.347l-14.954-5.453-2.782.121-3.609,14.2-.959-4.6-2.248.436,1.938,9.328-1.578,6.471h-3.247l-1.589-6.494,1.96-9.429Zm-26.292,6.56a7.614,7.614,0,0,1,5.008-7.134l14.131-5.168,5.579,22.866H1341.78Zm59.452,10.621h-24.65l5.568-22.866,14.028,5.122a7.613,7.613,0,0,1,4.984,7.134Z" transform="translate(-1338.35 -857.566)" fill="#558af1"/>
        <rect id="Rectangle_142" data-name="Rectangle 142" width="12.576" height="3.43" transform="translate(43.537 16.178)" fill="#558af1"/>
      </g>
      <g id="Group_599" data-name="Group 599" transform="translate(1338.921 801.22)">
        <path id="Path_37266" data-name="Path 37266" d="M1373.173,861.1a7.442,7.442,0,0,1-7.431-7.431H1380.6A7.443,7.443,0,0,1,1373.173,861.1Zm-8.16-.238a12.415,12.415,0,0,0,8.16,3.771c1.715,0,6.478-1.1,8.928-4.139a14.262,14.262,0,0,0,2.834-6.974V848.8a17.721,17.721,0,0,0,3.141-24.864c-6-7.734-18.316-9.426-26.05-3.428a18.106,18.106,0,0,0-3.393,25.15,21.092,21.092,0,0,0,3.679,3.141v4.7S1362.511,858.079,1365.013,860.858Zm.055-14.327a14.291,14.291,0,1,1,16.326,0l-.732.515v3.189H1365.8v-3.2Z" transform="translate(-1340.589 -802.789)" fill="#004cff"/>
        <path id="Path_37267" data-name="Path 37267" d="M1368.46,835.776a5.716,5.716,0,0,1,5.716-5.717,1.715,1.715,0,1,0,0-3.429,9.146,9.146,0,0,0-9.146,9.146,1.715,1.715,0,0,0,3.43,0Z" transform="translate(-1341.593 -803.764)" fill="#004cff"/>
        <path id="Path_37268" data-name="Path 37268" d="M1375,811.51a1.715,1.715,0,0,0,1.715-1.715v-6.86a1.715,1.715,0,1,0-3.429,0v6.86A1.715,1.715,0,0,0,1375,811.51Z" transform="translate(-1342.419 -801.22)" fill="#004cff"/>
        <path id="Path_37269" data-name="Path 37269" d="M1354.385,819.043a1.715,1.715,0,0,0,2.423-2.423L1352,811.772a1.738,1.738,0,0,0-2.458,2.458Z" transform="translate(-1339.99 -802.225)" fill="#004cff"/>
        <path id="Path_37270" data-name="Path 37270" d="M1340.7,838.953h6.86a1.715,1.715,0,1,0,0-3.43h-6.86a1.715,1.715,0,1,0,0,3.43Z" transform="translate(-1338.985 -804.654)" fill="#004cff"/>
        <path id="Path_37271" data-name="Path 37271" d="M1399.969,837.238a1.715,1.715,0,0,0,1.715,1.715h6.86a1.715,1.715,0,0,0,0-3.43h-6.86A1.715,1.715,0,0,0,1399.969,837.238Z" transform="translate(-1345.091 -804.654)" fill="#004cff"/>
        <path id="Path_37272" data-name="Path 37272" d="M1393.867,819.546a1.712,1.712,0,0,0,1.212-.5l4.848-4.813a1.738,1.738,0,0,0-2.458-2.458h0l-4.848,4.848a1.715,1.715,0,0,0,1.212,2.926Z" transform="translate(-1344.305 -802.225)" fill="#004cff"/>
      </g>
    </g>
    <text id="_02-2" data-name="02" transform="translate(39.697 100.781)" fill="#474747" font-size="20" font-family="WorkSans-Bold, Work Sans" font-weight="700"><tspan x="-12.4" y="0">02</tspan></text>
    <text id="Brainstorming" transform="translate(41.882 164.362)" fill="#004cff" font-size="20" font-family="WorkSans-Bold, Work Sans" font-weight="700"><tspan x="-70.09" y="0">Brainstorming</tspan></text>
  </g>
</svg>
