<svg xmlns="http://www.w3.org/2000/svg" width="181.249" height="210.275" viewBox="0 0 181.249 210.275">
  <g id="_03" data-name="03" transform="translate(50.851 40.912)">
    <path id="Path_37072" data-name="Path 37072" d="M153.494,64.683a78.527,78.527,0,0,1-7.189,33.31,87.673,87.673,0,0,1-19.65,27.319,96.2,96.2,0,0,1-29,18.692,89.984,89.984,0,0,1-35.227,6.95A83.646,83.646,0,0,1,28.4,144,95.657,95.657,0,0,1,.365,125.311,86.26,86.26,0,0,1-18.806,97.993a80.82,80.82,0,0,1-6.949-33.31,83.646,83.646,0,0,1,6.949-34.028A88.3,88.3,0,0,1,.365,2.856,89.778,89.778,0,0,1,28.4-15.835a86.218,86.218,0,0,1,34.028-6.71,92.781,92.781,0,0,1,35.227,6.71A90.058,90.058,0,0,1,146.3,30.654,81.259,81.259,0,0,1,153.494,64.683Z" transform="translate(-24.096 -17.367)" fill="#fff" stroke="#cedeff" stroke-width="2"/>
    <g id="_ICO_" data-name="[ICO]">
      <path id="Union_36" data-name="Union 36" d="M32.25,73.275a.226.226,0,0,1-.048-.007H28.511a1.829,1.829,0,0,1,0-3.657h1.906V60.325H4.906A4.911,4.911,0,0,1,0,55.42V4.905A4.911,4.911,0,0,1,4.906,0H74.841a4.908,4.908,0,0,1,4.9,4.905V55.42a4.908,4.908,0,0,1-4.9,4.905H49.326v9.286h1.906a1.829,1.829,0,0,1,0,3.657H47.545a.269.269,0,0,1-.048.007Zm1.827-3.664H45.669V60.325H34.077ZM3.657,55.42a1.249,1.249,0,0,0,1.249,1.249H74.841a1.249,1.249,0,0,0,1.245-1.249V51.905H3.657Zm0-50.515V48.249H76.086V4.905a1.249,1.249,0,0,0-1.245-1.249H4.906A1.249,1.249,0,0,0,3.657,4.905ZM38.569,55.577a1.874,1.874,0,0,1-.528-1.3A1.843,1.843,0,0,1,38.569,53a1.8,1.8,0,0,1,.6-.4,1.853,1.853,0,0,1,1.993.4,1.759,1.759,0,0,1,.532,1.28,1.817,1.817,0,0,1-1.828,1.828A1.846,1.846,0,0,1,38.569,55.577ZM71.847,6.431A1.269,1.269,0,1,1,73.115,7.7,1.267,1.267,0,0,1,71.847,6.431Zm-5.066,0A1.266,1.266,0,1,1,68.045,7.7,1.266,1.266,0,0,1,66.78,6.431Zm-5.071,0A1.269,1.269,0,1,1,62.978,7.7,1.267,1.267,0,0,1,61.709,6.431Z" fill="#558af1" stroke="rgba(0,0,0,0)" stroke-miterlimit="10" stroke-width="1"/>
      <path id="Union_37" data-name="Union 37" d="M18.6,30.917a1.569,1.569,0,0,1-.712-2.113L30.561.917a1.56,1.56,0,1,1,2.837,1.3l-12.68,27.9-.036.074a1.557,1.557,0,0,1-2.086.723Zm21.147-5.437a1.56,1.56,0,0,1,0-2.212L46.82,16.19l.688-.687-.688-.687L39.743,7.734a1.563,1.563,0,1,1,2.213-2.208L50.829,14.4a1.564,1.564,0,0,1,0,2.208l-8.869,8.873a1.57,1.57,0,0,1-2.213,0Zm-30.413,0L.457,16.606a1.567,1.567,0,0,1,0-2.211L9.33,5.522a1.55,1.55,0,0,1,1.1-.456,1.562,1.562,0,0,1,1.1,2.668L4.461,14.815l-.687.688.688.688,7.077,7.077A1.563,1.563,0,0,1,9.33,25.479Z" transform="translate(14.558 11.767)" fill="#004cff" stroke="rgba(0,0,0,0)" stroke-miterlimit="10" stroke-width="1"/>
    </g>
    <text id="_03-2" data-name="03" transform="translate(38.726 100.783)" fill="#474747" font-size="20" font-family="WorkSans-Bold, Work Sans" font-weight="700"><tspan x="-12.29" y="0">03</tspan></text>
    <text id="Development" transform="translate(39.872 164.363)" fill="#004cff" font-size="20" font-family="WorkSans-Bold, Work Sans" font-weight="700"><tspan x="-65.39" y="0">Development</tspan></text>
  </g>
</svg>
