<svg xmlns="http://www.w3.org/2000/svg" width="181.249" height="210.275" viewBox="0 0 181.249 210.275">
  <g id="_03" data-name="03" transform="translate(50.851 40.912)">
    <path id="Path_37072" data-name="Path 37072" d="M153.494,64.683a78.527,78.527,0,0,1-7.189,33.31,87.673,87.673,0,0,1-19.65,27.319,96.2,96.2,0,0,1-29,18.692,89.984,89.984,0,0,1-35.227,6.95A83.646,83.646,0,0,1,28.4,144,95.657,95.657,0,0,1,.365,125.311,86.26,86.26,0,0,1-18.806,97.993a80.82,80.82,0,0,1-6.949-33.31,83.646,83.646,0,0,1,6.949-34.028A88.3,88.3,0,0,1,.365,2.856,89.778,89.778,0,0,1,28.4-15.835a86.218,86.218,0,0,1,34.028-6.71,92.781,92.781,0,0,1,35.227,6.71A90.058,90.058,0,0,1,146.3,30.654,81.259,81.259,0,0,1,153.494,64.683Z" transform="translate(-24.096 -17.367)" fill="#fff" stroke="#cedeff" stroke-width="2"/>
    <g id="_ICO_" data-name="[ICO]" transform="translate(-1487.479 -680.233)">
      <path id="Path_37273" data-name="Path 37273" d="M1567.035,736.184l-18.018-27.113a1.121,1.121,0,0,0-1.555-.313l-.907.6a1.123,1.123,0,0,0-.314,1.556l16.4,24.674L1529.5,746.2l-31.573-40.081,33.483-9.129a1.12,1.12,0,0,0,.787-1.376l-.287-1.053a1.122,1.122,0,0,0-1.376-.788l-36.707,10.01a1.121,1.121,0,0,0-.585,1.775l8.058,10.232-13.442,11.986a1.122,1.122,0,0,0,.128,1.773l48.271,31.849a1.123,1.123,0,0,0,1.45-.184l17.976-19.893,10.763-3.445a1.121,1.121,0,0,0,.592-1.689Zm-74.816-7.837,11.145-9.936,24.463,31.057a1.124,1.124,0,0,0,1.222.373l20.309-6.5L1536.5,757.564Z" transform="translate(0 2.984)" fill="#558af1"/>
      <g id="Group_600" data-name="Group 600" transform="translate(1523.492 669.177)">
        <path id="Path_37274" data-name="Path 37274" d="M1529.888,737.454c-2.46,0-4.283-.569-4.9-2.032-1.514-3.583,3.222-6.362,7.4-8.815a21.8,21.8,0,0,0,4.223-2.868c-1.136-.308-4.926.5-7.252,1-4.926,1.061-7.776,1.6-9.07.366-1.612-1.538-.433-4.589,3.5-9.072a45.993,45.993,0,0,0,4.81-6.423,1.122,1.122,0,0,1,1.942,1.125,47.344,47.344,0,0,1-5.067,6.779c-3.417,3.891-3.772,5.67-3.626,5.987.715.408,4.672-.445,7.036-.953,5.084-1.095,9.1-1.96,9.964.388.745,2.038-1.935,3.611-5.327,5.6-3.046,1.788-7.218,4.236-6.47,6.007.832,1.967,11.8-.243,23.469-4.727a1.122,1.122,0,0,1,.8,2.094C1546.183,733.89,1536.045,737.454,1529.888,737.454Z" transform="translate(-1519.59 -664.33)" fill="#004cff"/>
        <path id="Path_37275" data-name="Path 37275" d="M1560.312,674.781l-1.115-2.474a.672.672,0,0,0-.783-.375l-1.108.289-.273-1.037a.668.668,0,0,0-.822-.481l-1.6.418-.378-1.442a.676.676,0,0,0-.773-.491l-3.181.586a.672.672,0,0,0-.446.3l-17.248,27.252a.639.639,0,0,0-.084.2l-3,12.877c-.174.8-.251,1.836.378,2.241a.975.975,0,0,0,.539.15,3.253,3.253,0,0,0,1.709-.719c.014-.01.029-.021.044-.034l10.722-8.878a.651.651,0,0,0,.141-.161l17.232-27.593A.674.674,0,0,0,1560.312,674.781ZM1535.3,699.243l.378,1.442a.67.67,0,0,0,.311.411.679.679,0,0,0,.51.071l1.6-.419.272,1.037a.672.672,0,0,0,.821.481l1.108-.289.038.147-7.934,6.569,2.156-9.256Zm6.26-.093a.672.672,0,0,0-.169.021l-1.109.29-.271-1.039a.669.669,0,0,0-.311-.409.657.657,0,0,0-.51-.071l-1.6.418-.378-1.442a.673.673,0,0,0-.821-.481l-.443.117,15.209-24.267,1.165-.292.38,1.449a.67.67,0,0,0,.82.481l1.6-.419.272,1.039a.673.673,0,0,0,.82.48l1.2-.313.171.4-15.359,24.6-.015-.055A.671.671,0,0,0,1541.56,699.15Z" transform="translate(-1518.4 -669.177)" fill="#004cff"/>
      </g>
    </g>
    <text id="_03-2" data-name="03" transform="translate(38.726 100.783)" fill="#474747" font-size="20" font-family="WorkSans-Bold, Work Sans" font-weight="700"><tspan x="-12.29" y="0">03</tspan></text>
    <text id="Sketching" transform="translate(39.872 164.363)" fill="#004cff" font-size="20" font-family="WorkSans-Bold, Work Sans" font-weight="700"><tspan x="-49.08" y="0">Sketching</tspan></text>
  </g>
</svg>
