<svg xmlns="http://www.w3.org/2000/svg" width="181.25" height="210.277" viewBox="0 0 181.25 210.277">
  <g id="_04" data-name="04" transform="translate(45.989 38.971)">
    <path id="Path_37073" data-name="Path 37073" d="M153.495,64.683a78.528,78.528,0,0,1-7.189,33.31,87.673,87.673,0,0,1-19.65,27.319,96.2,96.2,0,0,1-29,18.692,89.984,89.984,0,0,1-35.227,6.95A83.646,83.646,0,0,1,28.4,144,95.658,95.658,0,0,1,.366,125.312,86.26,86.26,0,0,1-18.805,97.993a80.82,80.82,0,0,1-6.949-33.31,83.647,83.647,0,0,1,6.949-34.029A88.3,88.3,0,0,1,.366,2.857,89.778,89.778,0,0,1,28.4-15.835a86.219,86.219,0,0,1,34.029-6.71,92.782,92.782,0,0,1,35.227,6.71,90.059,90.059,0,0,1,48.647,46.49A81.259,81.259,0,0,1,153.495,64.683Z" transform="translate(-19.234 -15.426)" fill="#fff" stroke="#cedeff" stroke-width="2"/>
    <g id="_ICO_" data-name="[ICO]">
      <path id="Union_35" data-name="Union 35" d="M74.963,75.893l-6.2-6.2H8.462A6.384,6.384,0,0,1,2.4,65.335L.142,56.448a3.089,3.089,0,0,1,.449-2.715A3.16,3.16,0,0,1,3.172,52.4h.975V6.386A6.394,6.394,0,0,1,10.531,0H80.311A6.394,6.394,0,0,1,86.7,6.386V52.4h.974a3.21,3.21,0,0,1,2.581,1.329,3.147,3.147,0,0,1,.422,2.825l-2.2,8.646A5.959,5.959,0,0,1,84.228,69.3l-.106.031.048.1a5.739,5.739,0,0,1-1.115,6.459,5.742,5.742,0,0,1-8.091,0ZM65.395,61.8l-.071.071L77.162,73.706a2.6,2.6,0,0,0,4.444-1.837,2.562,2.562,0,0,0-.752-1.828L69.07,58.257,69,58.189ZM5.38,64.472a3.254,3.254,0,0,0,3.065,2.116H65.63L63.1,64.054l-.161.166a1.453,1.453,0,0,1-1.036.426,1.58,1.58,0,0,1-1.159-.431l-2.763-2.773-.055-.052-.063.035a27.385,27.385,0,0,1-33.98-5.868l-.031-.031H3.047Zm66.165-8.895a1.625,1.625,0,0,1-.192.236l-.15.15L81.769,66.529l.028.031.043,0c2.975-.166,3.409-1.485,3.641-2.2l2.22-8.722a.174.174,0,0,0,.011-.062v-.1l-16.087.059h-.051Zm-51.438-18.2A24.415,24.415,0,1,0,44.518,12.947,24.443,24.443,0,0,0,20.106,37.381ZM66.754,53.595a27.462,27.462,0,0,1-6.03,6.029l-.091.067,1.206,1.214,6.12-6.12.071-.071L66.82,53.5ZM12.091,52.416h9.4l-.1-.149a27.3,27.3,0,0,1-4.41-14.886A27.53,27.53,0,1,1,68.559,50.714l-.036.063L70.146,52.4h8.6V7.945H12.091ZM80.311,4.824a1.561,1.561,0,0,1,1.561,1.562V52.4h1.7V6.386a3.267,3.267,0,0,0-3.263-3.264H10.531A3.267,3.267,0,0,0,7.268,6.386V52.4h1.7V6.386a1.559,1.559,0,0,1,1.562-1.562ZM22.634,37.381A21.882,21.882,0,1,1,44.518,59.266,21.91,21.91,0,0,1,22.634,37.381Zm3.121-.012A18.761,18.761,0,1,0,44.518,18.606,18.78,18.78,0,0,0,25.755,37.369Z" fill="#558af1" stroke="rgba(0,0,0,0)" stroke-miterlimit="10" stroke-width="1"/>
      <path id="Path_37111" data-name="Path 37111" d="M1518.836,446.814c-.5,0-.563-.015-.781-.44-.161-.528-1.025-3.14-2.923-4.26l-.051-.03,0-.06c.015-.239.022-.483.022-.721a10.481,10.481,0,0,0-.13-1.638l-.008-.05.036-.035,1.555-1.537a6.313,6.313,0,0,0,1.265-4.636,1.58,1.58,0,0,0-.646-1.052,1.494,1.494,0,0,0-1.113-.265,1.561,1.561,0,0,0-1.339,1.679l0,.057a3.167,3.167,0,0,1-.453,2.092l-.485.481-.065-.1a7.239,7.239,0,0,0-.47-.626l-.028-.032,0-.042a3.046,3.046,0,0,0,.022-.357,5.133,5.133,0,0,0-.876-2.833l-.068-.1.116-.042a1.564,1.564,0,0,0,1.035-1.462,3.086,3.086,0,0,0-3.083-3.082,1.543,1.543,0,0,0-1.52,1.9l.038.169-.164-.055a8.643,8.643,0,0,0-5.41,0l-.162.054.037-.167a1.547,1.547,0,0,0-1.522-1.9,3.085,3.085,0,0,0-3.082,3.082,1.564,1.564,0,0,0,1.023,1.458l.116.043-.068.1a5.131,5.131,0,0,0-.878,2.837,3.076,3.076,0,0,0,.02.353l0,.042-.026.032a7,7,0,0,0-.46.61l-.066.1-.768-.771a2.073,2.073,0,0,1-.223-1.593c.007-.035.014-.06.018-.085l0-.033a1.567,1.567,0,0,0-2.332-1.6,1.474,1.474,0,0,0-.7.9,5.166,5.166,0,0,0,.814,4.406c.107.132.526.559,1.956,1.991l.035.036-.008.048a10.928,10.928,0,0,0-.131,1.657c0,.227.007.462.021.7l0,.059-.052.031a7.519,7.519,0,0,0-2.875,4.081l-.033.111-.018-.009c-.267.525-.329.553-.831.553a1.564,1.564,0,0,0-1.562,1.56,1.532,1.532,0,0,0,1.576,1.52,3.759,3.759,0,0,0,3.716-2.486l.064-.171a6.458,6.458,0,0,1,.663-1.516l.1-.169.072.185a11.232,11.232,0,0,0,.527,1.159l.043.082-.08.048a3.5,3.5,0,0,0-1.866,3l-.025.244c-.06.271-.168.4-1.07.683l-.108.041a1.568,1.568,0,0,0-.923,1.937,1.6,1.6,0,0,0,1.878,1.031l.1-.023a4.088,4.088,0,0,0,3.186-3.011,5.623,5.623,0,0,0,.078-.561c.041-.426.048-.5.379-.66l.412-.124.041.039a8.177,8.177,0,0,0,5.7,2.37,8.271,8.271,0,0,0,5.662-2.366l.04-.037.222.061c.42.195.439.249.479.684a5.913,5.913,0,0,0,.087.615,4.071,4.071,0,0,0,3.185,2.976l.8.251.322-.926.028.009.148-.476-.038-.013.461-1.576-.8-.255c-.9-.287-1.015-.414-1.064-.659l-.03-.257a3.531,3.531,0,0,0-1.786-2.95l-.077-.048.043-.081a11.467,11.467,0,0,0,.533-1.158l.073-.187.1.173a7.38,7.38,0,0,1,.69,1.612l.061.157a3.688,3.688,0,0,0,3.659,2.352,1.56,1.56,0,1,0,0-3.121Zm-14.374,1.806-.132-.051c-2.506-.961-4.256-3.949-4.256-7.266a7,7,0,0,1,.31-2.169l.048-.147.112.108a7.488,7.488,0,0,0,3.84,1.906l.079.015Zm1.56-10.563c-2.23,0-4.112-1.293-4.112-2.824s1.882-2.825,4.112-2.825,4.113,1.294,4.113,2.825S1508.252,438.057,1506.022,438.057Zm1.693,10.513-.131.051v-7.6l.079-.015a7.472,7.472,0,0,0,3.854-1.915l.111-.108.049.147a6.91,6.91,0,0,1,.308,2.178C1511.984,444.622,1510.228,447.611,1507.715,448.57Z" transform="translate(-1461.479 -403.512)" fill="#004cff"/>
    </g>
    <text id="_04-2" data-name="04" transform="translate(44.588 103.726)" fill="#474747" font-size="20" font-family="WorkSans-Bold, Work Sans" font-weight="700"><tspan x="-12.9" y="0">04</tspan></text>
    <text id="Testing" transform="translate(45.418 166.307)" fill="#004cff" font-size="20" font-family="WorkSans-Bold, Work Sans" font-weight="700"><tspan x="-35.81" y="0">Testing</tspan></text>
  </g>
</svg>
