<svg xmlns="http://www.w3.org/2000/svg" width="181.25" height="210.277" viewBox="0 0 181.25 210.277">
  <g id="_04" data-name="04" transform="translate(45.989 38.971)">
    <path id="Path_37073" data-name="Path 37073" d="M153.495,64.683a78.528,78.528,0,0,1-7.189,33.31,87.673,87.673,0,0,1-19.65,27.319,96.2,96.2,0,0,1-29,18.692,89.984,89.984,0,0,1-35.227,6.95A83.646,83.646,0,0,1,28.4,144,95.658,95.658,0,0,1,.366,125.312,86.26,86.26,0,0,1-18.805,97.993a80.82,80.82,0,0,1-6.949-33.31,83.647,83.647,0,0,1,6.949-34.029A88.3,88.3,0,0,1,.366,2.857,89.778,89.778,0,0,1,28.4-15.835a86.219,86.219,0,0,1,34.029-6.71,92.782,92.782,0,0,1,35.227,6.71,90.059,90.059,0,0,1,48.647,46.49A81.259,81.259,0,0,1,153.495,64.683Z" transform="translate(-19.234 -15.426)" fill="#fff" stroke="#cedeff" stroke-width="2"/>
    <g id="_ICO_" data-name="[ICO]" transform="translate(-1477.978 -813.604)">
      <path id="Path_37277" data-name="Path 37277" d="M1527.5,828.711a1.784,1.784,0,0,0-1.653-1.1h-6.566a1.791,1.791,0,0,0-1.653,1.1L1504.5,859.893a1.785,1.785,0,0,0,.273,1.848l7.682,9.217-1.779,10.676v.006l-1.369,8.211a1.792,1.792,0,0,0,1.769,2.084h22.983a1.791,1.791,0,0,0,1.768-2.087l-1.368-8.205v-.005l-1.78-10.68,7.682-9.216a1.791,1.791,0,0,0,.276-1.845Zm4.439,59.639h-18.75l.77-4.623h17.209Zm-2.542-19.058a1.792,1.792,0,0,0-.394,1.446l1.568,9.4h-16.015l1.567-9.4a1.788,1.788,0,0,0-.39-1.442l-7.511-9.012,12.248-29.089h.3v19.648a6.717,6.717,0,1,0,3.585,0V831.2h.3l12.248,29.089Zm-3.7-11.982a3.133,3.133,0,1,1-3.132-3.133A3.137,3.137,0,0,1,1525.7,857.31Z" fill="#558af1"/>
      <path id="Path_37278" data-name="Path 37278" d="M1550.473,826.27h9.85a1.8,1.8,0,0,0,1.793-1.792v-9.85a1.8,1.8,0,0,0-1.793-1.793h-9.85a1.8,1.8,0,0,0-1.792,1.793v3.132h-19.4v-3.132a1.8,1.8,0,0,0-1.792-1.793h-9.85a1.8,1.8,0,0,0-1.793,1.793v3.132h-19.4v-3.132a1.8,1.8,0,0,0-1.792-1.793h-9.85a1.8,1.8,0,0,0-1.792,1.793v9.85a1.794,1.794,0,0,0,1.792,1.792h9.85a1.794,1.794,0,0,0,1.792-1.792v-3.133h10.756a34.607,34.607,0,0,0-18.587,24.323h-3.811a1.794,1.794,0,0,0-1.792,1.792v9.85a1.8,1.8,0,0,0,1.792,1.793h9.85a1.8,1.8,0,0,0,1.792-1.793v-9.85a1.794,1.794,0,0,0-1.792-1.792h-2.388a31.268,31.268,0,0,1,23.578-23.577v2.387a1.8,1.8,0,0,0,1.793,1.792h9.85a1.794,1.794,0,0,0,1.792-1.792V822.09a31.266,31.266,0,0,1,23.577,23.578h-2.387a1.794,1.794,0,0,0-1.792,1.792v9.85a1.8,1.8,0,0,0,1.792,1.793h9.85a1.8,1.8,0,0,0,1.793-1.793v-9.85a1.8,1.8,0,0,0-1.793-1.792h-3.812a34.607,34.607,0,0,0-18.587-24.323h10.757v3.133A1.794,1.794,0,0,0,1550.473,826.27Zm1.792-9.85h6.266v6.265h-6.266Zm-32.832,0h6.265v6.265h-6.265Zm-26.567,6.265H1486.6V816.42h6.266Zm0,32.833H1486.6v-6.266h6.266Zm65.665-6.266v6.266h-6.266v-6.266Z" fill="#004cff"/>
    </g>
    <text id="_04-2" data-name="04" transform="translate(44.588 103.726)" fill="#474747" font-size="20" font-family="WorkSans-Bold, Work Sans" font-weight="700"><tspan x="-12.9" y="0">04</tspan></text>
    <text id="Design_Execution" data-name="Design Execution" transform="translate(45.418 166.307)" fill="#004cff" font-size="20" font-family="WorkSans-Bold, Work Sans" font-weight="700"><tspan x="-84.93" y="0">Design Execution</tspan></text>
  </g>
</svg>
