<svg xmlns="http://www.w3.org/2000/svg" width="180.245" height="210.276" viewBox="0 0 180.245 210.276">
  <g id="_05" data-name="05" transform="translate(49.864 37.996)">
    <path id="Path_37074" data-name="Path 37074" d="M152.49,64.194a78.088,78.088,0,0,1-7.149,33.123,87.182,87.182,0,0,1-19.54,27.166A95.659,95.659,0,0,1,96.967,143.07a89.48,89.48,0,0,1-35.029,6.911A83.177,83.177,0,0,1,28.1,143.07,95.121,95.121,0,0,1,.219,124.483,85.777,85.777,0,0,1-18.844,97.317a80.367,80.367,0,0,1-6.911-33.123,83.178,83.178,0,0,1,6.911-33.838A87.807,87.807,0,0,1,.219,2.714,89.275,89.275,0,0,1,28.1-15.873a85.735,85.735,0,0,1,33.838-6.672,92.262,92.262,0,0,1,35.029,6.672,89.554,89.554,0,0,1,48.374,46.229A80.8,80.8,0,0,1,152.49,64.194Z" transform="translate(-23.109 -14.451)" fill="#fff" stroke="#cedeff" stroke-width="2"/>
    <g id="_ICO_" data-name="[ICO]">
      <path id="Path_37112" data-name="Path 37112" d="M1677.94,471.982h-2.412V425.73a4.234,4.234,0,0,0-4.229-4.229h-11.714c-.01-.7-.055-1.407-.132-2.1-.02-.2-.054-.388-.089-.581l-.046-.274c-.072-.474-.144-.938-.246-1.411-.075-.336-.166-.664-.269-1.033-.1-.384-.212-.766-.338-1.141s-.258-.729-.4-1.088-.278-.669-.43-1.008c-.161-.357-.327-.71-.51-1.057s-.376-.671-.571-1l-.126-.215c-.14-.237-.278-.476-.432-.705-.331-.5-.7-1-1.124-1.529-.029-.036-.056-.074-.084-.111s-.069-.1-.108-.144a21.924,21.924,0,0,0-1.614-1.749l-.221-.2c-.507-.482-1.05-.948-1.612-1.386l-.049-.041a.835.835,0,0,0-.079-.066l-.778-.591a.207.207,0,0,0-.091-.039,21.434,21.434,0,0,0-29.767,5.422,21.514,21.514,0,0,0-1.577,2.662.251.251,0,0,0-.058.077l-.266.561-.04.1c-.278.608-.532,1.244-.754,1.889l-.091.249c-.2.6-.37,1.211-.523,1.879l-.039.149c-.019.066-.036.133-.052.2-.142.633-.232,1.279-.3,1.83-.007.063-.018.126-.03.191s-.026.156-.036.238c-.066.669-.1,1.348-.106,2.022h-11.712a4.233,4.233,0,0,0-4.229,4.229v46.251h-2.413a.243.243,0,0,0-.243.243v3.985a4.233,4.233,0,0,0,4.228,4.229h71.734a4.234,4.234,0,0,0,4.229-4.229v-3.985A.243.243,0,0,0,1677.94,471.982ZM1649.348,414.7l-.82-1.426a3.84,3.84,0,0,1,1.11-5.062l.452-.324c.423.369.834.76,1.222,1.164.077.081.152.164.227.248l.1.114c.3.322.588.662.864,1.009.159.2.311.409.461.621.2.278.4.563.582.851.167.263.33.526.483.789.13.222.244.445.358.666l.06.117c.15.3.3.6.434.9.117.262.218.522.32.8l.047.121c.105.272.211.546.3.824.079.246.145.5.21.747l.1.356c.063.232.128.468.18.711.069.328.117.661.164.994l.021.136c.014.1.029.191.046.285.026.153.052.3.068.461a18.609,18.609,0,0,1,.109,1.941c0,.6-.031,1.219-.092,1.835a18.279,18.279,0,0,1-1.325,5.21l-1.753.876a3.847,3.847,0,0,1-3.645-.1l-.593-.337a3.869,3.869,0,0,1-1.437-5.278,3.915,3.915,0,0,1,.621-.813A7.036,7.036,0,0,0,1649.348,414.7Zm-11.26-11.311a18.185,18.185,0,0,1,9.335,2.579,6.983,6.983,0,0,0-1.619,8.864l.815,1.426a3.883,3.883,0,0,1-.625,4.651,7.011,7.011,0,0,0,1.479,11.041l.591.338a6.912,6.912,0,0,0,4.359.869,18.517,18.517,0,0,1-6.318,5.07,13.359,13.359,0,0,0-7-7.421,8.026,8.026,0,0,1-4.757-7.319,11.032,11.032,0,0,0-2.078-6.484l-.626-.877a11.135,11.135,0,0,0-8.769-4.608A18.246,18.246,0,0,1,1638.088,403.39Zm-18.26,16.519a18.132,18.132,0,0,1,1.3-5.146,8.019,8.019,0,0,1,7.958,3.193l.625.876a7.907,7.907,0,0,1,1.5,4.657,11.177,11.177,0,0,0,6.625,10.193,10.188,10.188,0,0,1,5.351,5.685c-.329.1-.659.177-.97.249l-.12.032c-.25.056-.5.1-.755.145l-.117.02c-.292.051-.569.1-.856.13-.217.027-.434.054-.656.074-.647.056-1.147.083-1.624.083a18.405,18.405,0,0,1-18.349-18.355A18.107,18.107,0,0,1,1619.827,419.909Zm-1.592,10.049a21.435,21.435,0,0,0,19.853,13.284c.649,0,1.312-.033,2.027-.1.282-.026.559-.069.836-.111l.529-.079c.191-.026.377-.053.565-.089.553-.1,1.087-.238,1.492-.344l.161-.041.212-.055c.526-.149,1.061-.325,1.591-.522l.071-.023c.033-.01.065-.02.1-.032l1.078-.407a.206.206,0,0,0,.093-.072,21.627,21.627,0,0,0,10.573-10.264.253.253,0,0,0,.06-.083l.192-.426a.7.7,0,0,0,.035-.09q.123-.27.239-.544h9.13v36.709h-57.964V429.958Zm-14.443-4.228a1.087,1.087,0,0,1,1.087-1.086H1616.8a20.638,20.638,0,0,0,.416,2.17h-11.015a.243.243,0,0,0-.243.243v42.509a.243.243,0,0,0,.243.243h63.764a.244.244,0,0,0,.243-.243V427.058a.244.244,0,0,0-.243-.243h-11.011c.031-.115.06-.23.086-.345l.031-.112c.012-.044.024-.088.035-.136.1-.458.181-.963.261-1.577H1671.3a1.086,1.086,0,0,1,1.085,1.086v46.251h-68.592Zm71.25,50.479a1.088,1.088,0,0,1-1.087,1.086h-71.734a1.086,1.086,0,0,1-1.085-1.086v-1.085h73.905Z" transform="translate(-1597.993 -400.24)" fill="#558af1"/>
      <path id="Path_37113" data-name="Path 37113" d="M1628.04,460.464h5.3v5.07a.244.244,0,0,0,.243.243h10.627a.243.243,0,0,0,.243-.243v-5.07h5.3a.243.243,0,0,0,.185-.4l-10.858-12.669a.25.25,0,0,0-.369,0l-10.858,12.669a.243.243,0,0,0,.184.4Zm10.858-8.456,4.554,5.311h-1.9a.243.243,0,0,0-.243.243v5.071h-4.828v-5.071a.243.243,0,0,0-.243-.243h-1.9Z" transform="translate(-1598.804 -401.52)" fill="#004cff"/>
    </g>
    <text id="_05-2" data-name="05" transform="translate(38.724 103.7)" fill="#474747" font-size="20" font-family="WorkSans-Bold, Work Sans" font-weight="700"><tspan x="-12.21" y="0">05</tspan></text>
    <text id="Deployment" transform="translate(40.095 167.28)" fill="#004cff" font-size="20" font-family="WorkSans-Bold, Work Sans" font-weight="700"><tspan x="-59.59" y="0">Deployment</tspan></text>
  </g>
</svg>
