<svg xmlns="http://www.w3.org/2000/svg" width="180.245" height="210.276" viewBox="0 0 180.245 210.276">
  <g id="_05" data-name="05" transform="translate(49.864 37.996)">
    <path id="Path_37074" data-name="Path 37074" d="M152.49,64.194a78.088,78.088,0,0,1-7.149,33.123,87.182,87.182,0,0,1-19.54,27.166A95.659,95.659,0,0,1,96.967,143.07a89.48,89.48,0,0,1-35.029,6.911A83.177,83.177,0,0,1,28.1,143.07,95.121,95.121,0,0,1,.219,124.483,85.777,85.777,0,0,1-18.844,97.317a80.367,80.367,0,0,1-6.911-33.123,83.178,83.178,0,0,1,6.911-33.838A87.807,87.807,0,0,1,.219,2.714,89.275,89.275,0,0,1,28.1-15.873a85.735,85.735,0,0,1,33.838-6.672,92.262,92.262,0,0,1,35.029,6.672,89.554,89.554,0,0,1,48.374,46.229A80.8,80.8,0,0,1,152.49,64.194Z" transform="translate(-23.109 -14.451)" fill="#fff" stroke="#cedeff" stroke-width="2"/>
    <g id="_ICO_" data-name="[ICO]" transform="translate(-1627.723 -797.906)">
      <g id="Group_601" data-name="Group 601">
        <path id="Path_37279" data-name="Path 37279" d="M1662.427,798.35v39.693h3.2V801.549h36.8v37.844h-35.494v3.2h38.693V798.35Z" fill="#004cff"/>
        <path id="Path_37280" data-name="Path 37280" d="M1689.027,819.35h-3.4v-3.4a1.6,1.6,0,1,0-3.2,0v3.4h-3.4a1.6,1.6,0,1,0,0,3.2h3.4v3.4a1.6,1.6,0,0,0,3.2,0v-3.4h3.4a1.6,1.6,0,0,0,0-3.2Z" fill="#004cff"/>
        <path id="Path_37281" data-name="Path 37281" d="M1668.427,804.35v32.2h31.2v-32.2Zm3.2,29v-25.8h24.8v25.8Z" fill="#004cff"/>
      </g>
      <g id="Group_602" data-name="Group 602">
        <path id="Path_37282" data-name="Path 37282" d="M1667.986,836.991a5.6,5.6,0,1,0,0,7.918A5.6,5.6,0,0,0,1667.986,836.991Zm-2.262,5.656a2.4,2.4,0,1,1,0-3.395A2.406,2.406,0,0,1,1665.724,842.647Z" fill="#558af1"/>
        <path id="Path_37283" data-name="Path 37283" d="M1662.328,836.991,1641.54,816.2l2.121-2.122-6.5-6.505-6.506,6.505,6.506,6.506,2.121-2.122,20.789,20.789a1.6,1.6,0,0,0,2.261-2.261Zm-23.192-22.912-1.979,1.98-1.981-1.98,1.981-1.979Z" fill="#558af1"/>
        <path id="Path_37284" data-name="Path 37284" d="M1690.9,861.314l-2.122,2.122-20.788-20.789a1.6,1.6,0,0,0-2.262,0,1.6,1.6,0,0,0,0,2.262l20.788,20.789-2.121,2.122,6.505,6.506,6.506-6.506Zm1.98,6.506-1.98,1.979-1.98-1.979,1.98-1.98Z" fill="#558af1"/>
        <path id="Path_37285" data-name="Path 37285" d="M1659.483,846.4a1.607,1.607,0,0,0-2.055-.95l-29.112,10.707a1.6,1.6,0,0,0-.155,2.935l11.827,5.853,5.852,11.827a1.6,1.6,0,0,0,2.937-.157l10.706-29.111A1.6,1.6,0,0,0,1659.483,846.4Zm-4.2,3.248-8.227,22.368-4.681-9.461-9.462-4.681Z" fill="#558af1"/>
      </g>
    </g>
    <text id="_05-2" data-name="05" transform="translate(38.724 103.7)" fill="#474747" font-size="20" font-family="WorkSans-Bold, Work Sans" font-weight="700"><tspan x="-12.21" y="0">05</tspan></text>
    <text id="Presentation" transform="translate(40.095 167.28)" fill="#004cff" font-size="20" font-family="WorkSans-Bold, Work Sans" font-weight="700"><tspan x="-63.48" y="0">Presentation</tspan></text>
  </g>
</svg>
