<svg xmlns="http://www.w3.org/2000/svg" width="180.245" height="210.276" viewBox="0 0 180.245 210.276">
  <g id="_05" data-name="05" transform="translate(49.864 37.996)">
    <path id="Path_37074" data-name="Path 37074" d="M152.49,64.194a78.088,78.088,0,0,1-7.149,33.123,87.182,87.182,0,0,1-19.54,27.166A95.659,95.659,0,0,1,96.967,143.07a89.48,89.48,0,0,1-35.029,6.911A83.177,83.177,0,0,1,28.1,143.07,95.121,95.121,0,0,1,.219,124.483,85.777,85.777,0,0,1-18.844,97.317a80.367,80.367,0,0,1-6.911-33.123,83.178,83.178,0,0,1,6.911-33.838A87.807,87.807,0,0,1,.219,2.714,89.275,89.275,0,0,1,28.1-15.873a85.735,85.735,0,0,1,33.838-6.672,92.262,92.262,0,0,1,35.029,6.672,89.554,89.554,0,0,1,48.374,46.229A80.8,80.8,0,0,1,152.49,64.194Z" transform="translate(-23.109 -14.451)" fill="#fff" stroke="#cedeff" stroke-width="2"/>
    <g id="_ICO_" data-name="[ICO]" transform="translate(-1626.353 -543.712)">
      <g id="Group_594" data-name="Group 594">
        <path id="Path_37255" data-name="Path 37255" d="M1693.765,546.2a8.849,8.849,0,0,0-8.849-8.849H1647.98a8.849,8.849,0,0,0-8.849,8.849v75.219a8.849,8.849,0,0,0,8.849,8.849h36.936a8.849,8.849,0,0,0,8.849-8.849h0Zm-2.309,63.676h-50.017V554.859h50.017Zm-6.513,18.276h-36.991a6.587,6.587,0,0,1-6.513-6.612v-9.355h50.017v9.355A6.586,6.586,0,0,1,1684.943,628.154Zm6.513-75.6h-50.017v-6.278a6.587,6.587,0,0,1,6.513-6.612h36.991a6.586,6.586,0,0,1,6.513,6.612Z" fill="#558af1"/>
        <path id="Path_37256" data-name="Path 37256" d="M1672.995,544.471H1659.9a1.154,1.154,0,1,0,0,2.308h13.095a1.154,1.154,0,1,0,0-2.308Z" fill="#558af1"/>
        <path id="Path_37257" data-name="Path 37257" d="M1666.448,614.988a5.184,5.184,0,1,0,5.183,5.183A5.183,5.183,0,0,0,1666.448,614.988Zm0,8.058a2.875,2.875,0,1,1,2.875-2.875A2.875,2.875,0,0,1,1666.448,623.046Z" fill="#558af1"/>
      </g>
      <g id="Group_595" data-name="Group 595">
        <path id="Path_37258" data-name="Path 37258" d="M1652.133,591.385a1.163,1.163,0,0,0,1.14,1.179h5.672v1.781a1.089,1.089,0,0,0,1.073,1.105h.274v2.486a1.206,1.206,0,0,0,1.2,1.169h.487c-.03.577-.037,1.287-.037,1.3,0,3.323,2.509,6.284,4.136,6.609a1.137,1.137,0,0,0,.226-.021h.236c.077,0,.113.032.188.017,1.646-.329,4.145-3.295,4.145-6.613v-.025l.037-.088c-.01-.469.019-.793.008-1.178h.482a1.211,1.211,0,0,0,1.2-1.169V595.45h.206a1.1,1.1,0,0,0,1.14-1.062v-1.874h5.661a1.151,1.151,0,0,0,1.151-1.152v0c0-5.786-2-9.209-6.812-11.658v-7.548c0-4.827-1.483-6.785-3.952-10.029-.259-.34-.527-.7-.811-1.077l-1.825-2.435a1.152,1.152,0,0,0-1.614-.231,1.1,1.1,0,0,0-.231.231l-1.827,2.435c-.285.38-.542.737-.8,1.078-2.468,3.243-3.944,5.2-3.944,10.028v7.474C1654.136,582,1652.133,585.476,1652.133,591.385Zm16.5,8.946,0,.08a2.715,2.715,0,1,1-4.391-.006c0-.282.016-.917.039-1.3h4.319c.01.386.021.7.032,1.227Zm1.657-3.534h-7.7V595.45h7.7Zm8.138-6.541h-4.483v-7.917C1676.836,584.132,1678.223,586.408,1678.433,590.256Zm-13.707-26.732c.262-.345.53-.706.818-1.09l.9-1.205.9,1.205c.289.384.555.745.817,1.089,2.4,3.146,3.48,4.583,3.48,8.631v20.988h-10.388V572.154C1661.254,568.106,1662.332,566.671,1664.726,563.524Zm-5.781,18.724v8.008h-4.493C1654.608,586.793,1655.482,584.229,1658.945,582.248Z" fill="#004cff"/>
        <path id="Path_37259" data-name="Path 37259" d="M1666.445,580.06h0a4.363,4.363,0,1,0-4.364-4.363A4.363,4.363,0,0,0,1666.446,580.06Zm0-6.364a2.055,2.055,0,1,1-2.054,2.055A2.055,2.055,0,0,1,1666.445,573.7Z" fill="#004cff"/>
      </g>
    </g>
    <text id="_05-2" data-name="05" transform="translate(38.724 103.7)" fill="#474747" font-size="20" font-family="WorkSans-Bold, Work Sans" font-weight="700"><tspan x="-12.21" y="0">05</tspan></text>
    <text id="Launch" transform="translate(40.095 167.28)" fill="#004cff" font-size="20" font-family="WorkSans-Bold, Work Sans" font-weight="700"><tspan x="-36.07" y="0">Launch</tspan></text>
  </g>
</svg>
