<svg xmlns="http://www.w3.org/2000/svg" width="53.169" height="58.524" viewBox="0 0 53.169 58.524"><defs><style>.a{fill:#a5a5a5;}.b{fill:#00ff84;stroke:rgba(0,0,0,0);stroke-miterlimit:10;}</style></defs><g transform="translate(-1391.264 -580.737)"><path class="a" d="M1445.508,622.709a5.013,5.013,0,0,1-1.472,4l-13.935,13.8a10.713,10.713,0,0,1-7.56,3.06h-17.206l-4.356,4.3a1.528,1.528,0,0,1-2.145,0,1.493,1.493,0,0,1-.014-2.11l.014-.014,4.786-4.741a1.525,1.525,0,0,1,1.072-.438h17.848a7.677,7.677,0,0,0,5.453-2.233l13.935-13.8a2.033,2.033,0,0,0-.073-2.874l-.02-.019a2.084,2.084,0,0,0-2.826,0l-11,11.009-.036.03a5.11,5.11,0,0,1-3.557,1.458h-10.632a1.5,1.5,0,1,1-.011-3h10.65a2.056,2.056,0,0,0,2-1.59,2.029,2.029,0,0,0-1.546-2.417l-.011,0a2.07,2.07,0,0,0-.442-.048h-18.348a6.394,6.394,0,0,0-4.525,1.854l-2.678,2.646a1.525,1.525,0,0,1-2.135.161,1.5,1.5,0,0,1-.172-2.107,1.562,1.562,0,0,1,.172-.172l2.678-2.645a9.409,9.409,0,0,1,6.665-2.737h18.348a5.04,5.04,0,0,1,4.683,3.108l7.719-7.645a5.13,5.13,0,0,1,7.206,0A5.024,5.024,0,0,1,1445.508,622.709Z" transform="translate(-1.093 -9.048)"/><path class="b" d="M4.6,33.344a20.432,20.432,0,1,1,36.269-12.91,20.688,20.688,0,0,1-.331,3.618l2.109-1.367a1.085,1.085,0,0,1,1.18,1.822l-4.509,2.921c-.022.015-.034.04-.055.052a1.088,1.088,0,0,1-1.5-.319l-2.94-4.541a1.085,1.085,0,1,1,1.822-1.179l1.428,2.2a18.177,18.177,0,0,0,.3-3.21A17.931,17.931,0,1,0,6.709,31.97a1.122,1.122,0,0,1-.357,1.512,1.206,1.206,0,0,1-.753.273A1.626,1.626,0,0,1,4.6,33.344Zm10.733-6.229-.007-.013a1.5,1.5,0,0,1,.815-1.954,1.518,1.518,0,0,1,1.984.8,2.753,2.753,0,0,0,2.537,1.674l-.007.007a2.54,2.54,0,0,0,2.789-2.39c0-.411,0-1.7-3.09-2.4H20.3c-4.684-1.082-5.385-3.8-5.385-5.321a5.3,5.3,0,0,1,4.24-5.191V11.254a1.514,1.514,0,1,1,3.028,0v1.057a5.741,5.741,0,0,1,3.818,3.3c.013.028.024.055.037.086l0,.01a1.5,1.5,0,0,1-.876,1.925,1.517,1.517,0,0,1-1.957-.863,2.747,2.747,0,0,0-2.54-1.668,2.512,2.512,0,0,0-2.752,2.4c0,.412,0,1.7,3.087,2.4h.05c4.681,1.081,5.384,3.8,5.384,5.323a5.468,5.468,0,0,1-5.78,5.4h-.023A5.772,5.772,0,0,1,15.331,27.115Z" transform="translate(1391.764 581.237)"/></g></svg>