<svg xmlns="http://www.w3.org/2000/svg" width="55.151" height="54.656" viewBox="0 0 55.151 54.656"><defs><style>.a{fill:#a5a5a5;}.b{fill:#00ff84;stroke:rgba(0,0,0,0);stroke-miterlimit:10;}</style></defs><g transform="translate(-1129.503 -578.899)"><path class="a" d="M1180.516,594.806a3.912,3.912,0,0,0-3.9-3.835h-8.4l.013-.242a24.163,24.163,0,0,0-.189-5.726,8.263,8.263,0,0,0-1.808-4.15,5.888,5.888,0,0,0-4.628-1.948c-1.493.023-1.754,1.66-1.865,2.361-.065.414-.117.872-.172,1.36l-.033.282c-.055.482-.108.946-.177,1.418-.407,2.774-1.2,4.452-2.432,5.13-.31.171-.67.331-1,.479a7.939,7.939,0,0,0-2.53,1.53,2.98,2.98,0,0,0-1.787-.572h-5.532a3.1,3.1,0,0,0-3.083,3.092v12.9a3.1,3.1,0,0,0,3.084,3.092h5.541a3.044,3.044,0,0,0,2.093-.829,4.05,4.05,0,0,0,2.449.829h16.321c1.808,0,3.118-1.157,3.891-3.437.384-1.136.988-2.653,1.629-4.258h0l-.3-.118.319.064C1179.25,599.161,1180.516,595.991,1180.516,594.806Zm-8.032,12.685h-16.321a1.435,1.435,0,0,1-1.466-1.355V594.424a1.623,1.623,0,0,1,.848-1.519,9.406,9.406,0,0,1,1.292-.652c.45-.2.857-.385,1.294-.618,2.555-1.372,3.3-4.287,3.69-6.955.071-.473.129-.956.186-1.465.07-.6.142-1.216.243-1.792,1.841.21,2.874,1.446,3.343,3.988a24.6,24.6,0,0,1,.147,5.352c-.029.566-.053,1.056-.054,1.447a1.242,1.242,0,0,0,1.243,1.246c2.55-.009,6.6,0,8.576,0h1.078a1.4,1.4,0,0,1,1.458,1.307,48.441,48.441,0,0,1-2.269,6.4c-.682,1.718-1.328,3.36-1.744,4.564C1173.591,606.98,1173.144,607.492,1172.484,607.492Zm-20.271-13.511v12.909a.6.6,0,0,1-.6.6h-5.539a.6.6,0,0,1-.593-.608V593.975a.6.6,0,0,1,.6-.6h5.539A.6.6,0,0,1,1152.213,593.98Z" transform="translate(-4.67)"/><path class="b" d="M40.985,21.625a1.272,1.272,0,0,1-.511-1.256l.714-4.338-3.014-3.076a1.279,1.279,0,0,1-.295-1.319,1.214,1.214,0,0,1,.973-.829l4.155-.631,1.861-3.941a1.2,1.2,0,0,1,2.2,0l1.858,3.939,4.155.628a1.219,1.219,0,0,1,.973.835,1.278,1.278,0,0,1-.3,1.31l-3.014,3.076.709,4.343a1.279,1.279,0,0,1-.513,1.254,1.177,1.177,0,0,1-1.264.073L45.964,19.66,42.255,21.7a1.205,1.205,0,0,1-.576.151A1.178,1.178,0,0,1,40.985,21.625Zm3.938-9.738a1.219,1.219,0,0,1-.917.7l-2.365.36,1.718,1.752a1.3,1.3,0,0,1,.347,1.11L43.3,18.262l2.09-1.149a1.18,1.18,0,0,1,1.147,0l2.1,1.152-.4-2.456a1.3,1.3,0,0,1,.343-1.108L50.3,12.935l-2.367-.361a1.232,1.232,0,0,1-.92-.693L45.969,9.67ZM32.482,21.7,27.06,18.71,21.638,21.7a1.209,1.209,0,0,1-.576.148.914.914,0,0,1-.213-.023,1.235,1.235,0,0,1-.8-.526,1.249,1.249,0,0,1-.187-.941l1.04-6.326L16.5,9.541a1.283,1.283,0,0,1-.295-1.314,1.219,1.219,0,0,1,.973-.835l6.07-.925L25.968.709A1.281,1.281,0,0,1,27.063,0a1.223,1.223,0,0,1,1.1.711l2.715,5.756,6.066.92a1.227,1.227,0,0,1,.983.837,1.281,1.281,0,0,1-.3,1.314l-4.4,4.489,1.037,6.342a1.276,1.276,0,0,1-.513,1.256,1.152,1.152,0,0,1-.686.224A1.2,1.2,0,0,1,32.482,21.7Zm-4.848-5.529,3.806,2.091-.73-4.455a1.3,1.3,0,0,1,.347-1.111v0l3.1-3.169-4.272-.644a1.213,1.213,0,0,1-.923-.7l-1.9-4.027L25.16,8.18a1.214,1.214,0,0,1-.918.7l-4.282.652L23.069,12.7a1.3,1.3,0,0,1,.347,1.109l-.735,4.452,3.806-2.091a1.173,1.173,0,0,1,.571-.149A1.2,1.2,0,0,1,27.634,16.167ZM11.858,21.692,8.151,19.657,4.442,21.7a1.2,1.2,0,0,1-1.264-.073,1.281,1.281,0,0,1-.516-1.256l.716-4.338L.367,12.957a1.282,1.282,0,0,1-.3-1.321,1.221,1.221,0,0,1,.975-.829L5.2,10.179,7.057,6.235a1.2,1.2,0,0,1,2.2,0l1.856,3.939,4.152.628a1.221,1.221,0,0,1,.973.837,1.272,1.272,0,0,1-.295,1.305l-3.014,3.079.711,4.34a1.28,1.28,0,0,1-.513,1.254,1.191,1.191,0,0,1-.691.222A1.169,1.169,0,0,1,11.858,21.692ZM8.725,17.11l2.087,1.147-.4-2.456a1.3,1.3,0,0,1,.349-1.105v0l1.72-1.757-2.361-.36a1.234,1.234,0,0,1-.923-.694L8.155,9.675,7.111,11.887a1.214,1.214,0,0,1-.917.7l-2.362.355,1.716,1.751A1.309,1.309,0,0,1,5.894,15.8l-.4,2.456L7.576,17.11a1.171,1.171,0,0,1,1.149,0Z" transform="translate(1130.019 611.183)"/></g></svg>