<svg xmlns="http://www.w3.org/2000/svg" width="60.332" height="55.521" viewBox="0 0 60.332 55.521"><defs><style>.a{fill:#a5a5a5;stroke:rgba(0,0,0,0);stroke-miterlimit:10;}.b{fill:#00ff84;}</style></defs><g transform="translate(-1524.263 -581.896)"><path class="a" d="M23.994,54.521l-.034,0H21.213a1.36,1.36,0,0,1,0-2.721h1.419V44.885H3.647A3.651,3.651,0,0,1,0,41.237V3.647A3.652,3.652,0,0,1,3.647,0H55.683a3.653,3.653,0,0,1,3.65,3.647v37.59a3.653,3.653,0,0,1-3.65,3.647H36.7V51.8h1.42a1.36,1.36,0,1,1,0,2.721H35.374l-.035,0ZM25.353,51.8h8.625V44.885H25.353ZM2.721,41.237a.93.93,0,0,0,.927.928H55.683a.928.928,0,0,0,.927-.928V38.618H2.721Zm0-37.59V35.9H56.609V3.647a.928.928,0,0,0-.927-.927H3.647A.93.93,0,0,0,2.721,3.647ZM28.7,41.354a1.388,1.388,0,0,1-.4-.965,1.361,1.361,0,0,1,.4-.953,1.254,1.254,0,0,1,.445-.3,1.384,1.384,0,0,1,1.484.3,1.313,1.313,0,0,1,.394.953,1.364,1.364,0,0,1-2.323.965Z" transform="translate(1524.762 582.396)"/><path class="b" d="M1573.076,590.887a4,4,0,0,0-3.757,2.641h-10.5c-.022,0-.042,0-.063,0s-.042,0-.063,0H1548.2a4,4,0,1,0,0,2.721h3.576a10.342,10.342,0,0,0-3.29,6.287h-1.5a1.362,1.362,0,0,0-1.36,1.36v5.277a1.362,1.362,0,0,0,1.36,1.361h5.277a1.363,1.363,0,0,0,1.361-1.361V603.9a1.362,1.362,0,0,0-1.361-1.36h-1.031a7.656,7.656,0,0,1,7.452-6.287h.14a7.666,7.666,0,0,1,7.466,6.287h-1.031a1.362,1.362,0,0,0-1.36,1.36v5.277a1.362,1.362,0,0,0,1.36,1.361h5.277a1.363,1.363,0,0,0,1.361-1.361V603.9a1.362,1.362,0,0,0-1.361-1.36h-1.5a10.335,10.335,0,0,0-3.294-6.287h3.579a4,4,0,1,0,3.755-5.363Zm1.278,4a1.278,1.278,0,1,1-1.278-1.278A1.281,1.281,0,0,1,1574.354,594.885Zm-28.639.023a1.28,1.28,0,1,1,0-.042c0,.007,0,.015,0,.022S1545.715,594.9,1545.715,594.908Zm5.184,10.349v2.556h-2.557v-2.556Zm18.273,0v2.556h-2.557v-2.556Z" transform="translate(-4.33 -2.345)"/></g></svg>