<svg xmlns="http://www.w3.org/2000/svg" width="56.366" height="53.152" viewBox="0 0 56.366 53.152"><defs><style>.a{fill:#a5a5a5;stroke:rgba(0,0,0,0);stroke-miterlimit:10;}.b{fill:#00ff84;}</style></defs><g transform="translate(-1274.567 -580.7)"><path class="a" d="M52.579,46.17c-.68-3.011-3.468-11.177-8.166-12.772a51.842,51.842,0,0,0-10.636-2.426,9.284,9.284,0,0,1-4.718,2.036V45.866a1.394,1.394,0,0,1-2.788,0V33.011a9.349,9.349,0,0,1-4.718-2.036A51.849,51.849,0,0,0,10.918,33.4c-4.7,1.6-7.486,9.762-8.166,12.772A1.391,1.391,0,0,1,1.4,47.259a1.433,1.433,0,0,1-.307-.034A1.392,1.392,0,0,1,.034,45.56c.11-.5,2.843-12.377,9.986-14.8a55.7,55.7,0,0,1,9.614-2.349c-.152-.272-1.815-3.656-1.815-3.656a25.754,25.754,0,0,1-2.262-7.876c-.276-3.854.5-9.578,2.242-12.112C21.03.052,27.4,0,27.664,0S34.3.052,37.531,4.765c1.741,2.537,2.518,8.26,2.242,12.112-.265,3.707-2.393,8.547-4.077,11.532a55.949,55.949,0,0,1,9.613,2.349c7.141,2.425,9.876,14.3,9.99,14.8a1.4,1.4,0,0,1-1.056,1.665,1.443,1.443,0,0,1-.309.034A1.391,1.391,0,0,1,52.579,46.17ZM20.1,6.341c-1.206,1.755-2.03,6.587-1.763,10.335a25.971,25.971,0,0,0,2.549,8.082,11.726,11.726,0,0,0,2.33,3.958,5.435,5.435,0,0,0,4.443,1.621h.014A7.242,7.242,0,0,0,32.12,28.71a1.387,1.387,0,0,1,.245-.262A3.879,3.879,0,0,0,32.7,28c1.933-3.1,4.069-8.177,4.295-11.321.267-3.748-.558-8.577-1.76-10.335-2.406-3.506-7.518-3.557-7.567-3.557S22.5,2.835,20.1,6.341ZM35.474,42.034a1.394,1.394,0,0,1,0-2.788h8.118a1.394,1.394,0,0,1,0,2.788Z" transform="translate(1275.071 586.093)"/><path class="b" d="M1324,602.508a3.15,3.15,0,0,1-1.762,2.817V599.69A3.151,3.151,0,0,1,1324,602.508Zm-36.982,0a3.152,3.152,0,0,1,1.762-2.818v5.635A3.151,3.151,0,0,1,1287.022,602.508Zm8.644,8.34a4.221,4.221,0,0,1-4.094-4.213v-9.206a13.941,13.941,0,1,1,27.881,0v9.628a1.4,1.4,0,0,0,1.394,1.394,5.941,5.941,0,0,0,1.376-11.721,16.726,16.726,0,0,0-33.423,0,5.941,5.941,0,0,0,.2,11.6,7.013,7.013,0,0,0,6.789,5.307h8.19a1.394,1.394,0,1,0,0-2.787Z" transform="translate(-2.776)"/></g></svg>