<svg xmlns="http://www.w3.org/2000/svg" width="36.475" height="34.476" viewBox="0 0 36.475 34.476">
  <g id="ICO_arrow" data-name="ICO arrow" transform="translate(-1765 -95.524)">
    <path id="Path_37019" data-name="Path 37019" d="M11.3-4.031A1.027,1.027,0,0,1,12-3a.522.522,0,0,1-.047.234L10.828,2.109A1,1,0,0,1,9.75,3,20.953,20.953,0,0,1-5.625-3.375,20.953,20.953,0,0,1-12-18.75a1,1,0,0,1,.891-1.078l4.875-1.125A.522.522,0,0,1-6-21a1.027,1.027,0,0,1,1.031.7l2.25,5.25a.93.93,0,0,1,.094.422,1.154,1.154,0,0,1-.422.891l-2.812,2.3a16.514,16.514,0,0,0,8.3,8.3l2.3-2.812a1.154,1.154,0,0,1,.891-.422.93.93,0,0,1,.422.094Z" transform="translate(1777 127)" fill="#004cff"/>
    <path id="Path_37018" data-name="Path 37018" d="M3.75-6.836-1.562-1.523a.9.9,0,0,1-.664.273.9.9,0,0,1-.664-.273l-.859-.9a.9.9,0,0,1-.273-.664A.9.9,0,0,1-3.75-3.75L0-7.5l-3.75-3.75a.9.9,0,0,1-.273-.664.9.9,0,0,1,.273-.664l.859-.9a.9.9,0,0,1,.664-.273.9.9,0,0,1,.664.273L3.75-8.164a.9.9,0,0,1,.273.664A.9.9,0,0,1,3.75-6.836Z" transform="translate(1799.514 108.092) rotate(-45)" fill="#004cff"/>
  </g>
</svg>
