<svg xmlns="http://www.w3.org/2000/svg" width="40" height="40" viewBox="0 0 40 40">
  <g id="ICO" transform="translate(-384 -1656)">
    <circle id="Ellipse_41" data-name="Ellipse 41" cx="20" cy="20" r="20" transform="translate(384 1656)" fill="#fff"/>
    <path id="Path_37019" data-name="Path 37019" d="M9.414-3.359A.856.856,0,0,1,10-2.5a.435.435,0,0,1-.039.2L9.023,1.758a.836.836,0,0,1-.9.742A17.461,17.461,0,0,1-4.687-2.812,17.461,17.461,0,0,1-10-15.625a.836.836,0,0,1,.742-.9l4.063-.937A.435.435,0,0,1-5-17.5a.856.856,0,0,1,.859.586l1.875,4.375a.775.775,0,0,1,.078.352.962.962,0,0,1-.352.742L-4.883-9.531A13.762,13.762,0,0,0,2.031-2.617L3.945-4.961a.962.962,0,0,1,.742-.352.775.775,0,0,1,.352.078Z" transform="translate(404 1684)" fill="#114fc8"/>
  </g>
</svg>
