<svg xmlns="http://www.w3.org/2000/svg" width="30" height="30" viewBox="0 0 30 30">
  <g id="ICO" transform="translate(-384 -1660)">
    <circle id="Ellipse_41" data-name="Ellipse 41" cx="15" cy="15" r="15" transform="translate(384 1660)" fill="#ff0"/>
    <path id="Path_37018" data-name="Path 37018" d="M-1.328-14.883l.9-.859a.9.9,0,0,1,.664-.273.9.9,0,0,1,.664.273L8.477-8.164A.9.9,0,0,1,8.75-7.5a.9.9,0,0,1-.273.664L.9.742a.9.9,0,0,1-.664.273A.9.9,0,0,1-.43.742l-.9-.859a.84.84,0,0,1-.254-.664.977.977,0,0,1,.293-.664L3.4-5.937H-7.812a.9.9,0,0,1-.664-.273.9.9,0,0,1-.273-.664v-1.25a.9.9,0,0,1,.273-.664.9.9,0,0,1,.664-.273H3.4l-4.687-4.492a.977.977,0,0,1-.293-.664A.84.84,0,0,1-1.328-14.883Z" transform="translate(393 1683)" fill="#004cff"/>
  </g>
</svg>
