<svg xmlns="http://www.w3.org/2000/svg" width="181.778" height="1123.75" viewBox="0 0 181.778 1123.75"><defs><style>.a{fill:#fff;stroke-linejoin:round;}.a,.b{stroke:#00ff84;stroke-linecap:round;stroke-width:8px;}.b{fill:none;stroke-dasharray:20 15;}.c{fill:#558af1;}.c,.f{stroke:rgba(0,0,0,0);stroke-miterlimit:10;}.d,.f{fill:#004cff;}.e{fill:#474747;font-size:20px;font-family:WorkSans-Bold, Work Sans;font-weight:700;}</style></defs><g transform="translate(283.67 -257.226) rotate(90)"><g transform="translate(261.226 30.168)"><g transform="translate(0 75.724)"><path class="a" d="M153.495,64.683a78.528,78.528,0,0,1-7.189,33.31,87.673,87.673,0,0,1-19.65,27.319,96.2,96.2,0,0,1-29,18.692,89.984,89.984,0,0,1-35.227,6.95A83.646,83.646,0,0,1,28.4,144,95.658,95.658,0,0,1,.366,125.312,86.26,86.26,0,0,1-18.805,97.993a80.82,80.82,0,0,1-6.949-33.31,83.647,83.647,0,0,1,6.949-34.029A88.3,88.3,0,0,1,.366,2.857,89.778,89.778,0,0,1,28.4-15.835a86.219,86.219,0,0,1,34.029-6.71,92.782,92.782,0,0,1,35.227,6.71,90.059,90.059,0,0,1,48.647,46.49A81.259,81.259,0,0,1,153.495,64.683Z" transform="translate(962.255 22.824)"/><path class="a" d="M153.494,64.683a78.527,78.527,0,0,1-7.189,33.31,87.673,87.673,0,0,1-19.65,27.319,96.2,96.2,0,0,1-29,18.692,89.984,89.984,0,0,1-35.227,6.95A83.646,83.646,0,0,1,28.4,144,95.657,95.657,0,0,1,.365,125.311,86.26,86.26,0,0,1-18.806,97.993a80.82,80.82,0,0,1-6.949-33.31,83.646,83.646,0,0,1,6.949-34.028A88.3,88.3,0,0,1,.365,2.856,89.778,89.778,0,0,1,28.4-15.835a86.218,86.218,0,0,1,34.028-6.71,92.781,92.781,0,0,1,35.227,6.71A90.058,90.058,0,0,1,146.3,30.654,81.259,81.259,0,0,1,153.494,64.683Z" transform="translate(650.255 22.546)"/><path class="a" d="M153.495,64.683a78.528,78.528,0,0,1-7.189,33.31,87.673,87.673,0,0,1-19.65,27.319,96.2,96.2,0,0,1-29,18.692,89.984,89.984,0,0,1-35.227,6.95A83.646,83.646,0,0,1,28.4,144,95.658,95.658,0,0,1,.366,125.312,86.26,86.26,0,0,1-18.805,97.993a80.82,80.82,0,0,1-6.949-33.31,83.647,83.647,0,0,1,6.949-34.029A88.3,88.3,0,0,1,.366,2.857,89.778,89.778,0,0,1,28.4-15.835a86.219,86.219,0,0,1,34.029-6.71,92.782,92.782,0,0,1,35.227,6.71,90.059,90.059,0,0,1,48.647,46.49A81.259,81.259,0,0,1,153.495,64.683Z" transform="translate(338.256 22.545)"/><path class="a" d="M152.49,64.194a78.088,78.088,0,0,1-7.149,33.123,87.182,87.182,0,0,1-19.54,27.166A95.66,95.66,0,0,1,96.967,143.07a89.48,89.48,0,0,1-35.029,6.911A83.178,83.178,0,0,1,28.1,143.07,95.122,95.122,0,0,1,.219,124.483,85.777,85.777,0,0,1-18.844,97.318a80.367,80.367,0,0,1-6.911-33.123,83.178,83.178,0,0,1,6.911-33.838A87.808,87.808,0,0,1,.219,2.714,89.275,89.275,0,0,1,28.1-15.873a85.735,85.735,0,0,1,33.838-6.672,92.262,92.262,0,0,1,35.029,6.672,89.554,89.554,0,0,1,48.374,46.229A80.8,80.8,0,0,1,152.49,64.194Z" transform="translate(25.755 22.545)"/></g><path class="b" d="M167.667,219.835s81.666-127,239.666-127,150.667,173,309.334,173c51.725,0,94.736-15.347,129.4-34.787C917.172,191.162,952,129.835,952,129.835" transform="translate(0 -16.833)"/></g><g transform="translate(318.843 143.012)"><g transform="translate(915.212 95.282) rotate(-90)"><path class="c" d="M74.963,75.893l-6.2-6.2H8.462A6.384,6.384,0,0,1,2.4,65.335L.142,56.448a3.089,3.089,0,0,1,.449-2.715A3.16,3.16,0,0,1,3.172,52.4h.975V6.386A6.394,6.394,0,0,1,10.531,0H80.311A6.394,6.394,0,0,1,86.7,6.386V52.4h.974a3.21,3.21,0,0,1,2.581,1.329,3.147,3.147,0,0,1,.422,2.825l-2.2,8.646A5.959,5.959,0,0,1,84.228,69.3l-.106.031.048.1a5.739,5.739,0,0,1-1.115,6.459,5.742,5.742,0,0,1-8.091,0ZM65.395,61.8l-.071.071L77.162,73.706a2.6,2.6,0,0,0,4.444-1.837,2.562,2.562,0,0,0-.752-1.828L69.07,58.257,69,58.189ZM5.38,64.472a3.254,3.254,0,0,0,3.065,2.116H65.63L63.1,64.054l-.161.166a1.453,1.453,0,0,1-1.036.426,1.58,1.58,0,0,1-1.159-.431l-2.763-2.773-.055-.052-.063.035a27.385,27.385,0,0,1-33.98-5.868l-.031-.031H3.047Zm66.165-8.895a1.625,1.625,0,0,1-.192.236l-.15.15L81.769,66.529l.028.031.043,0c2.975-.166,3.409-1.485,3.641-2.2l2.22-8.722a.174.174,0,0,0,.011-.062v-.1l-16.087.059h-.051Zm-51.438-18.2A24.415,24.415,0,1,0,44.518,12.947,24.443,24.443,0,0,0,20.106,37.381ZM66.754,53.595a27.462,27.462,0,0,1-6.03,6.029l-.091.067,1.206,1.214,6.12-6.12.071-.071L66.82,53.5ZM12.091,52.416h9.4l-.1-.149a27.3,27.3,0,0,1-4.41-14.886A27.53,27.53,0,1,1,68.559,50.714l-.036.063L70.146,52.4h8.6V7.945H12.091ZM80.311,4.824a1.561,1.561,0,0,1,1.561,1.562V52.4h1.7V6.386a3.267,3.267,0,0,0-3.263-3.264H10.531A3.267,3.267,0,0,0,7.268,6.386V52.4h1.7V6.386a1.559,1.559,0,0,1,1.562-1.562ZM22.634,37.381A21.882,21.882,0,1,1,44.518,59.266,21.91,21.91,0,0,1,22.634,37.381Zm3.121-.012A18.761,18.761,0,1,0,44.518,18.606,18.78,18.78,0,0,0,25.755,37.369Z"/><path class="d" d="M1518.836,446.814c-.5,0-.563-.015-.781-.44-.161-.528-1.025-3.14-2.923-4.26l-.051-.03,0-.06c.015-.239.022-.483.022-.721a10.481,10.481,0,0,0-.13-1.638l-.008-.05.036-.035,1.555-1.537a6.313,6.313,0,0,0,1.265-4.636,1.58,1.58,0,0,0-.646-1.052,1.494,1.494,0,0,0-1.113-.265,1.561,1.561,0,0,0-1.339,1.679l0,.057a3.167,3.167,0,0,1-.453,2.092l-.485.481-.065-.1a7.239,7.239,0,0,0-.47-.626l-.028-.032,0-.042a3.046,3.046,0,0,0,.022-.357,5.133,5.133,0,0,0-.876-2.833l-.068-.1.116-.042a1.564,1.564,0,0,0,1.035-1.462,3.086,3.086,0,0,0-3.083-3.082,1.543,1.543,0,0,0-1.52,1.9l.038.169-.164-.055a8.643,8.643,0,0,0-5.41,0l-.162.054.037-.167a1.547,1.547,0,0,0-1.522-1.9,3.085,3.085,0,0,0-3.082,3.082,1.564,1.564,0,0,0,1.023,1.458l.116.043-.068.1a5.131,5.131,0,0,0-.878,2.837,3.076,3.076,0,0,0,.02.353l0,.042-.026.032a7,7,0,0,0-.46.61l-.066.1-.768-.771a2.073,2.073,0,0,1-.223-1.593c.007-.035.014-.06.018-.085l0-.033a1.567,1.567,0,0,0-2.332-1.6,1.474,1.474,0,0,0-.7.9,5.166,5.166,0,0,0,.814,4.406c.107.132.526.559,1.956,1.991l.035.036-.008.048a10.928,10.928,0,0,0-.131,1.657c0,.227.007.462.021.7l0,.059-.052.031a7.519,7.519,0,0,0-2.875,4.081l-.033.111-.018-.009c-.267.525-.329.553-.831.553a1.564,1.564,0,0,0-1.562,1.56,1.532,1.532,0,0,0,1.576,1.52,3.759,3.759,0,0,0,3.716-2.486l.064-.171a6.458,6.458,0,0,1,.663-1.516l.1-.169.072.185a11.232,11.232,0,0,0,.527,1.159l.043.082-.08.048a3.5,3.5,0,0,0-1.866,3l-.025.244c-.06.271-.168.4-1.07.683l-.108.041a1.568,1.568,0,0,0-.923,1.937,1.6,1.6,0,0,0,1.878,1.031l.1-.023a4.088,4.088,0,0,0,3.186-3.011,5.623,5.623,0,0,0,.078-.561c.041-.426.048-.5.379-.66l.412-.124.041.039a8.177,8.177,0,0,0,5.7,2.37,8.271,8.271,0,0,0,5.662-2.366l.04-.037.222.061c.42.195.439.249.479.684a5.913,5.913,0,0,0,.087.615,4.071,4.071,0,0,0,3.185,2.976l.8.251.322-.926.028.009.148-.476-.038-.013.461-1.576-.8-.255c-.9-.287-1.015-.414-1.064-.659l-.03-.257a3.531,3.531,0,0,0-1.786-2.95l-.077-.048.043-.081a11.467,11.467,0,0,0,.533-1.158l.073-.187.1.173a7.38,7.38,0,0,1,.69,1.612l.061.157a3.688,3.688,0,0,0,3.659,2.352,1.56,1.56,0,1,0,0-3.121Zm-14.374,1.806-.132-.051c-2.506-.961-4.256-3.949-4.256-7.266a7,7,0,0,1,.31-2.169l.048-.147.112.108a7.488,7.488,0,0,0,3.84,1.906l.079.015Zm1.56-10.563c-2.23,0-4.112-1.293-4.112-2.824s1.882-2.825,4.112-2.825,4.113,1.294,4.113,2.825S1508.252,438.057,1506.022,438.057Zm1.693,10.513-.131.051v-7.6l.079-.015a7.472,7.472,0,0,0,3.854-1.915l.111-.108.049.147a6.91,6.91,0,0,1,.308,2.178C1511.984,444.622,1510.228,447.611,1507.715,448.57Z" transform="translate(-1461.479 -403.512)"/><text class="e" transform="translate(44.588 103.726)"><tspan x="-12.9" y="0">04</tspan></text></g><g transform="translate(603.733 89.282) rotate(-90)"><path class="c" d="M32.25,73.275a.226.226,0,0,1-.048-.007H28.511a1.829,1.829,0,0,1,0-3.657h1.906V60.325H4.906A4.911,4.911,0,0,1,0,55.42V4.905A4.911,4.911,0,0,1,4.906,0H74.841a4.908,4.908,0,0,1,4.9,4.905V55.42a4.908,4.908,0,0,1-4.9,4.905H49.326v9.286h1.906a1.829,1.829,0,0,1,0,3.657H47.545a.269.269,0,0,1-.048.007Zm1.827-3.664H45.669V60.325H34.077ZM3.657,55.42a1.249,1.249,0,0,0,1.249,1.249H74.841a1.249,1.249,0,0,0,1.245-1.249V51.905H3.657Zm0-50.515V48.249H76.086V4.905a1.249,1.249,0,0,0-1.245-1.249H4.906A1.249,1.249,0,0,0,3.657,4.905ZM38.569,55.577a1.874,1.874,0,0,1-.528-1.3A1.843,1.843,0,0,1,38.569,53a1.8,1.8,0,0,1,.6-.4,1.853,1.853,0,0,1,1.993.4,1.759,1.759,0,0,1,.532,1.28,1.817,1.817,0,0,1-1.828,1.828A1.846,1.846,0,0,1,38.569,55.577ZM71.847,6.431A1.269,1.269,0,1,1,73.115,7.7,1.267,1.267,0,0,1,71.847,6.431Zm-5.066,0A1.266,1.266,0,1,1,68.045,7.7,1.266,1.266,0,0,1,66.78,6.431Zm-5.071,0A1.269,1.269,0,1,1,62.978,7.7,1.267,1.267,0,0,1,61.709,6.431Z"/><path class="f" d="M18.6,30.917a1.569,1.569,0,0,1-.712-2.113L30.561.917a1.56,1.56,0,1,1,2.837,1.3l-12.68,27.9-.036.074a1.557,1.557,0,0,1-2.086.723Zm21.147-5.437a1.56,1.56,0,0,1,0-2.212L46.82,16.19l.688-.687-.688-.687L39.743,7.734a1.563,1.563,0,1,1,2.213-2.208L50.829,14.4a1.564,1.564,0,0,1,0,2.208l-8.869,8.873a1.57,1.57,0,0,1-2.213,0Zm-30.413,0L.457,16.606a1.567,1.567,0,0,1,0-2.211L9.33,5.522a1.55,1.55,0,0,1,1.1-.456,1.562,1.562,0,0,1,1.1,2.668L4.461,14.815l-.687.688.688.688,7.077,7.077A1.563,1.563,0,0,1,9.33,25.479Z" transform="translate(14.558 11.767)"/><text class="e" transform="translate(38.726 100.783)"><tspan x="-12.29" y="0">03</tspan></text></g><g transform="translate(291.532 91.282) rotate(-90)"><path class="c" d="M73.528,72.589a1.514,1.514,0,0,1-1.514-1.513V68.393H30.09v2.684a1.516,1.516,0,0,1-1.513,1.513H19.838a1.512,1.512,0,0,1-1.512-1.513V62.688a1.516,1.516,0,0,1,1.512-1.514h2.068V58.857H4.717A4.72,4.72,0,0,1,0,54.142V4.729A4.727,4.727,0,0,1,4.717,0H61.8a4.727,4.727,0,0,1,4.716,4.729V26.205H72V23.521a1.514,1.514,0,0,1,1.513-1.508h8.739a1.512,1.512,0,0,1,1.513,1.508v8.393a1.512,1.512,0,0,1-1.513,1.509H79.4V61.175h2.849a1.517,1.517,0,0,1,1.513,1.514v8.388a1.513,1.513,0,0,1-1.513,1.513Zm1.5-3.021h5.716V64.2H75.025Zm-53.678,0h5.716V64.2H21.348Zm3.581-8.393h3.648a1.519,1.519,0,0,1,1.513,1.514v2.683H72.015V62.688a1.517,1.517,0,0,1,1.514-1.514h2.848V33.422H73.528a1.513,1.513,0,0,1-1.514-1.509V29.227H30.09v2.687a1.515,1.515,0,0,1-1.513,1.509H24.929ZM3.022,54.142a1.7,1.7,0,0,0,1.694,1.694H21.906V33.41H19.838A1.512,1.512,0,0,1,18.326,31.9V23.51A1.516,1.516,0,0,1,19.838,22h8.739A1.519,1.519,0,0,1,30.09,23.51v2.683H63.5V16.308H3.022ZM21.348,30.4h5.716V25.034H21.348Zm53.678-.015h5.716V25.021H75.025Zm-72-25.669v8.57H63.484V4.716A1.7,1.7,0,0,0,61.791,3.01H4.717A1.7,1.7,0,0,0,3.022,4.716ZM54.25,10.161a1.513,1.513,0,1,1,0-3.025h1.835a1.513,1.513,0,1,1,0,3.025Zm-7.841,0a1.513,1.513,0,1,1,0-3.025h1.836a1.513,1.513,0,0,1,0,3.025Zm-7.828,0a1.513,1.513,0,1,1,0-3.025h1.836a1.513,1.513,0,0,1,0,3.025Zm-29.451,0a1.513,1.513,0,0,1,0-3.025H26.871a1.513,1.513,0,1,1,0,3.025Z"/><path class="f" d="M31.952,29.8a1.513,1.513,0,0,1,0-3.026h2.864V24.02a1.517,1.517,0,0,1,1.51-1.514,1.5,1.5,0,0,1,1.513,1.514V28.29A1.514,1.514,0,0,1,36.326,29.8Zm-30.438,0A1.517,1.517,0,0,1,0,28.29V24.02a1.513,1.513,0,1,1,3.026,0v2.758H5.745a1.513,1.513,0,1,1,0,3.026Zm14.6-3.129a1.546,1.546,0,0,1-1.474-.922L7.285,8.153a1.5,1.5,0,0,1,.279-1.61,1.518,1.518,0,0,1,1.587-.41l17.478,5.891a1.518,1.518,0,0,1,.094,2.837l-6.813,2.81-2.423,7.937a1.529,1.529,0,0,1-1.364,1.068Zm-.306-5.964L17.218,16.1a1.5,1.5,0,0,1,.857-.946h.008L21.831,13.6,11.36,10.067Zm19-14.978V3.021H31.952a1.511,1.511,0,1,1,0-3.021h4.374a1.5,1.5,0,0,1,1.513,1.513V5.733a1.511,1.511,0,1,1-3.022,0ZM0,5.733V1.513A1.517,1.517,0,0,1,1.514,0H5.745a1.511,1.511,0,1,1,0,3.021H3.026V5.733A1.513,1.513,0,0,1,0,5.733Z" transform="translate(31.74 32.77)"/><text class="e" transform="translate(39.697 100.781)"><tspan x="-12.4" y="0">02</tspan></text></g><g transform="translate(-21.69 81.282) rotate(-90)"><path class="c" d="M11.55,64.948a2.915,2.915,0,0,1-2.906-2.883V56.328H2.9A2.905,2.905,0,0,1,0,53.445V46.228H2.922v7.178l40.316,0V3.009l-7.175-.091L36.1,0,43.27.087A2.907,2.907,0,0,1,46.16,3v5.71h5.709A2.918,2.918,0,0,1,54.78,11.59V62a2.875,2.875,0,0,1-.8,2.045,2.912,2.912,0,0,1-2.036.905Zm.012-2.9,40.308-.024L51.858,11.6l-5.7.02V53.405a2.911,2.911,0,0,1-2.883,2.923H11.562ZM10.077,47.711V44.79H34.621V10.164h2.923V47.711Z" transform="translate(8.621 8.53)"/><path class="f" d="M2.724,56.241A2.723,2.723,0,0,1,0,53.522V2.72A2.723,2.723,0,0,1,2.724,0H43.442a2.72,2.72,0,0,1,2.72,2.719v50.8a2.72,2.72,0,0,1-2.72,2.719Zm.2-2.92H43.245V2.917H2.92Zm9.036-30.659a1.46,1.46,0,0,1,0-2.921H28.224a1.46,1.46,0,0,1,0,2.921Zm0-7.144a1.46,1.46,0,0,1,0-2.92H28.224a1.46,1.46,0,0,1,0,2.92Z"/><text class="e" transform="translate(27.999 101.78)"><tspan x="-10.75" y="0">01</tspan></text></g></g></g></svg>